LJogging_XZ.mot
version=1
datacolumns 20
datarows 55
range 0.000000 0.540000
inDegrees=yes
endheader
time	pelvis_tilt	pelvis_list	pelvis_rotation	hip_flexion_r	hip_adduction_r	hip_rotation_r	knee_angle_r	ankle_angle_r	hip_flexion_l	hip_adduction_l	hip_rotation_l	knee_angle_l	ankle_angle_l	pelvis_tx	pelvis_ty	pelvis_tz	lumbar_bending	lumbar_rotation	lumbar_extension
0.000000	26.607667	-7.844954	-172.009963	4.781109	-10.003516	-6.131373	-33.373486	-10.055531	51.350969	13.282662	-3.470212	-50.353576	19.396046	2.448850	0.873733	0.077178	-0.000000	-0.000000	0.000000
0.010000	25.715262	-9.107169	-171.583830	6.143217	-11.744539	-5.466273	-38.159840	-12.150366	48.751744	14.847639	-4.288223	-49.593438	19.788815	2.434500	0.874942	0.077007	-0.000000	-0.000000	0.000000
0.020000	25.213276	-9.975557	-171.280590	10.013313	-13.492764	-4.049446	-45.797731	-13.077646	46.382643	16.140139	-5.557961	-49.721538	21.282519	2.408983	0.874557	0.078224	-0.000000	-0.000000	0.000000
0.030000	25.170516	-9.773984	-171.405552	11.940935	-13.570093	-3.567939	-48.534734	-12.446798	45.856417	15.998542	-5.736468	-50.085865	21.846515	2.398742	0.873805	0.079060	-0.000000	-0.000000	0.000000
0.040000	25.130460	-9.425494	-171.618302	14.278819	-13.509539	-3.045273	-51.685448	-11.509584	45.246417	15.688572	-5.842601	-50.499509	22.420127	2.386652	0.872904	0.080052	-0.000000	-0.000000	0.000000
0.050000	25.108121	-8.948670	-171.922396	16.983647	-13.310886	-2.486477	-55.149208	-10.295434	44.546292	15.219524	-5.885875	-50.898509	22.956666	2.372965	0.871950	0.081135	-0.000000	-0.000000	0.000000
0.060000	25.121772	-8.367544	-172.325026	19.979716	-12.971033	-1.888934	-58.755864	-8.847745	43.766448	14.597623	-5.889488	-51.223408	23.431953	2.358082	0.871055	0.082238	-0.000000	-0.000000	0.000000
0.070000	25.176434	-7.708969	-172.837862	23.169274	-12.481547	-1.251641	-62.305894	-7.228875	42.909365	13.825887	-5.890218	-51.425466	23.849737	2.342406	0.870348	0.083296	-0.000000	-0.000000	0.000000
0.080000	25.263611	-6.992653	-173.472905	26.446243	-11.823280	-0.589991	-65.601884	-5.502237	41.965181	12.901877	-5.939310	-51.468158	24.229334	2.326266	0.869969	0.084267	-0.000000	-0.000000	0.000000
0.090000	25.366738	-6.223530	-174.234354	29.706290	-10.968707	0.052918	-68.477432	-3.701649	40.913437	11.819689	-6.084407	-51.323920	24.588443	2.309883	0.870057	0.085139	-0.000000	-0.000000	0.000000
0.100000	25.464138	-5.398106	-175.112497	32.850611	-9.900259	0.610853	-70.817486	-1.820727	39.721472	10.581104	-6.343789	-50.965921	24.925695	2.293366	0.870725	0.085919	-0.000000	-0.000000	0.000000
0.110000	25.531276	-4.518873	-176.084734	35.790740	-8.630812	1.018162	-72.562737	0.166140	38.344458	9.207843	-6.699654	-50.360684	25.211580	2.276717	0.872033	0.086631	-0.000000	-0.000000	0.000000
0.120000	25.542972	-3.602560	-177.122036	38.454782	-7.207750	1.234187	-73.697390	2.265420	36.731010	7.744073	-7.107885	-49.468977	25.394994	2.259854	0.873980	0.087297	-0.000000	-0.000000	0.000000
0.130000	25.478154	-2.677869	-178.194698	40.793791	-5.700950	1.252353	-74.227365	4.428386	34.836144	6.249166	-7.512352	-48.254586	25.414940	2.242645	0.876522	0.087931	-0.000000	-0.000000	0.000000
0.140000	25.326710	-1.775527	-179.274787	42.785406	-4.183206	1.095059	-74.159864	6.541661	32.636877	4.784101	-7.859374	-46.694624	25.209094	2.224952	0.879598	0.088526	-0.000000	-0.000000	0.000000
0.150000	25.088525	-0.915352	-180.337495	44.425198	-2.709752	0.802852	-73.490712	8.449410	30.136264	3.394269	-8.108947	-44.785935	24.719831	2.206670	0.883170	0.089064	-0.000000	-0.000000	0.000000
0.160000	24.765460	-0.098459	-181.361444	45.710377	-1.306777	0.425521	-72.201861	9.991307	27.356241	2.097966	-8.242052	-42.547694	23.901929	2.187751	0.887240	0.089509	-0.000000	-0.000000	0.000000
0.170000	24.362319	0.689173	-182.326061	46.637045	0.023667	0.014330	-70.270632	11.042409	24.337858	0.889789	-8.263154	-40.022418	22.728564	2.168207	0.891844	0.089821	-0.000000	-0.000000	0.000000
0.180000	23.897080	1.464239	-183.208164	47.213108	1.286964	-0.388800	-67.686740	11.541144	21.150040	-0.243644	-8.195078	-37.273853	21.183628	2.148088	0.897012	0.089967	-0.000000	-0.000000	0.000000
0.190000	23.400104	2.232741	-183.982105	47.464323	2.478981	-0.759099	-64.469186	11.497854	17.884896	-1.305921	-8.066831	-34.380203	19.248483	2.127455	0.902735	0.089922	-0.000000	-0.000000	0.000000
0.200000	22.901518	2.982188	-184.625071	47.428887	3.578567	-1.086471	-60.676918	10.986567	14.638433	-2.280069	-7.901413	-31.425092	16.902325	2.106367	0.908936	0.089683	-0.000000	-0.000000	0.000000
0.210000	22.424469	3.681318	-185.125307	47.154678	4.552060	-1.364806	-56.409785	10.125920	11.496688	-3.128320	-7.709476	-28.490370	14.135686	2.084873	0.915469	0.089260	-0.000000	-0.000000	0.000000
0.220000	21.982927	4.287481	-185.486801	46.694246	5.364169	-1.578967	-51.798578	9.056177	8.527980	-3.801347	-7.488960	-25.652356	10.962232	2.063002	0.922133	0.088670	-0.000000	-0.000000	0.000000
0.230000	21.577599	4.759313	-185.725509	46.091728	5.987531	-1.698848	-46.987347	7.919351	5.776421	-4.252917	-7.229762	-22.981450	7.423238	2.040770	0.928709	0.087931	-0.000000	-0.000000	0.000000
0.240000	21.197191	5.067566	-185.861950	45.375462	6.407977	-1.687614	-42.116588	6.847608	3.264475	-4.453082	-6.920330	-20.545825	3.596340	2.018183	0.934989	0.087052	-0.000000	-0.000000	0.000000
0.250000	20.827703	5.199288	-185.918387	44.564121	6.627189	-1.521660	-37.313323	5.955061	1.005047	-4.395404	-6.553089	-18.416626	-0.391788	1.995246	0.940798	0.086041	-0.000000	-0.000000	0.000000
0.260000	20.461021	5.157618	-185.919743	43.677096	6.663686	-1.208705	-32.688660	5.327819	-0.987819	-4.098602	-6.125928	-16.670301	-4.363595	1.971975	0.946000	0.084905	-0.000000	-0.000000	0.000000
0.270000	20.096739	4.960043	-185.893268	42.739599	6.551237	-0.787451	-28.340871	5.019068	-2.696311	-3.603996	-5.637433	-15.386995	-8.103146	1.948407	0.950502	0.083656	-0.000000	-0.000000	0.000000
0.280000	19.741284	4.635146	-185.866744	41.783368	6.334977	-0.310732	-24.358853	5.048470	-4.100117	-2.969456	-5.082757	-14.644236	-11.384616	1.924609	0.954252	0.082315	-0.000000	-0.000000	0.000000
0.290000	19.406494	4.218338	-185.866156	40.843988	6.065808	0.174284	-20.821008	5.394139	-5.179065	-2.260281	-4.457539	-14.505442	-14.014644	1.900672	0.957236	0.080902	-0.000000	-0.000000	0.000000
0.300000	19.107248	3.747198	-185.913388	39.956428	5.793280	0.637557	-17.791568	5.978987	-5.916377	-1.538315	-3.769183	-15.007210	-15.868472	1.876696	0.959468	0.079443	-0.000000	-0.000000	0.000000
0.310000	18.859600	3.257688	-186.024108	39.152172	5.559359	1.065190	-15.319241	6.672698	-6.300108	-0.853729	-3.048724	-16.151328	-16.906119	1.852783	0.960977	0.077961	-0.000000	-0.000000	0.000000
0.320000	18.675769	2.783531	-186.204084	38.453777	5.395197	1.454150	-13.438286	7.321748	-6.326599	-0.244839	-2.351382	-17.904526	-17.171941	1.829019	0.961796	0.076478	-0.000000	-0.000000	0.000000
0.330000	18.557762	2.357515	-186.444638	37.868449	5.319779	1.805383	-12.168315	7.788880	-6.004556	0.255619	-1.743147	-20.205474	-16.782980	1.805479	0.961949	0.075011	-0.000000	-0.000000	0.000000
0.340000	18.497514	2.011193	-186.722269	37.389224	5.340489	2.112892	-11.511451	7.982269	-5.352862	0.614787	-1.283277	-22.975352	-15.909192	1.782227	0.961451	0.073575	-0.000000	-0.000000	0.000000
0.350000	18.483100	1.772035	-187.006258	37.003468	5.457435	2.357497	-11.449758	7.874542	-4.394215	0.799107	-1.012241	-26.126905	-14.748709	1.759307	0.960313	0.072183	-0.000000	-0.000000	0.000000
0.360000	18.504078	1.659087	-187.269999	36.701459	5.668466	2.514348	-11.946189	7.510248	-3.151125	0.779497	-0.948033	-29.570477	-13.499224	1.736747	0.958542	0.070846	-0.000000	-0.000000	0.000000
0.370000	18.552729	1.678446	-187.496428	36.480754	5.968365	2.567261	-12.949537	6.995062	-1.645420	0.540100	-1.085517	-33.219059	-12.325394	1.714567	0.956156	0.069571	-0.000000	-0.000000	0.000000
0.380000	18.623752	1.820324	-187.675387	36.347348	6.343404	2.515134	-14.402069	6.468944	0.102228	0.086133	-1.394646	-36.993747	-11.325521	1.692780	0.953189	0.068359	-9.659864	5.059969	11.354126
0.390000	18.712806	2.059762	-187.799177	36.312791	6.768295	2.372896	-16.248580	6.081971	2.072268	-0.553225	-1.826597	-40.827973	-10.514944	1.671398	0.949687	0.067193	-9.094689	5.484672	11.493468
0.400000	18.813080	2.361122	-187.859711	36.386316	7.207637	2.172707	-18.443218	5.981337	4.244541	-1.328014	-2.330569	-44.668997	-9.838674	1.650422	0.945711	0.066038	-7.890243	6.167847	11.443930
0.410000	18.913175	2.684993	-187.846724	36.566201	7.620545	1.954814	-20.947192	6.288048	6.598081	-2.175446	-2.864356	-48.477565	-9.200105	1.629848	0.941328	0.064848	-7.367333	6.591765	11.404454
0.420000	18.999941	2.996563	-187.747535	36.835467	7.967889	1.747398	-23.715583	7.060744	9.114951	-3.030576	-3.391094	-52.225775	-8.490193	1.609656	0.936612	0.063578	-6.793968	6.975485	11.356706
0.430000	19.066737	3.273529	-187.549560	37.163968	8.220811	1.549413	-26.680294	8.274055	11.786775	-3.837601	-3.870740	-55.891256	-7.613477	1.589810	0.931651	0.062202	-6.192413	7.280773	11.296604
0.440000	19.122315	3.509097	-187.246097	37.514364	8.366530	1.328185	-29.738641	9.827037	14.618756	-4.557068	-4.255523	-59.447829	-6.505170	1.570252	0.926558	0.060722	-5.586789	7.492863	11.227956
0.450000	19.191280	3.706904	-186.843403	37.844636	8.407222	1.038681	-32.754558	11.578225	17.623283	-5.164496	-4.498299	-62.855464	-5.136664	1.550903	0.921489	0.059168	-4.987314	7.617710	11.171141
0.460000	19.304488	3.871403	-186.364339	38.105088	8.353713	0.652496	-35.572228	13.386505	20.803418	-5.644264	-4.569810	-66.052739	-3.515507	1.531670	0.916637	0.057587	-4.382678	7.668865	11.159340
0.470000	19.485778	3.999434	-185.844210	38.234635	8.217531	0.175136	-38.036140	15.136739	24.136036	-5.983986	-4.471379	-68.955881	-1.682342	1.512456	0.912227	0.056024	-3.744985	7.653717	11.226529
0.480000	19.740393	4.074740	-185.319012	38.160104	8.001200	-0.354027	-40.011423	16.749090	27.562628	-6.168852	-4.238822	-71.466279	0.298214	1.493164	0.908494	0.054503	-3.044460	7.563650	11.392639
0.490000	20.053282	4.067300	-184.812036	37.804637	7.690824	-0.880054	-41.398569	18.173677	30.995216	-6.177898	-3.934377	-73.483454	2.346959	1.473694	0.905648	0.053029	-2.265578	7.371565	11.655636
0.500000	20.399119	3.940580	-184.326009	37.104493	7.258532	-1.363404	-42.138410	19.372129	34.335848	-5.986436	-3.626006	-74.918393	4.372321	1.453940	0.903849	0.051583	-1.416754	7.039507	11.995284
0.510000	20.747968	3.665018	-183.844180	36.016200	6.675247	-1.797695	-42.207944	20.302612	37.489557	-5.573535	-3.368178	-75.703803	6.276853	1.433790	0.903189	0.050150	-0.529574	6.532554	12.376017
0.520000	21.065050	3.229023	-183.339984	34.513287	5.925944	-2.201476	-41.611405	20.921031	40.367552	-4.930191	-3.194136	-75.799579	7.977083	1.413152	0.903694	0.048727	0.351780	5.831412	12.748970
0.530000	21.321520	2.640468	-182.790769	32.592727	5.018919	-2.601395	-40.372174	21.188801	42.899121	-4.064055	-3.113820	-75.191939	9.420225	1.391961	0.905326	0.047339	1.186041	4.937668	13.068686
0.540000	21.506395	1.922203	-182.186125	30.281989	3.985672	-3.017870	-38.528609	21.076870	45.043267	-2.998466	-3.114044	-73.886611	10.582349	1.370176	0.908005	0.046030	1.947218	3.871972	13.311253
